<svg width="214" height="104" viewBox="0 0 214 104" fill="none" xmlns="http://www.w3.org/2000/svg">
<g filter="url(#filter0_d_592_148)">
<path d="M197.353 0C203.16 0 209.022 1.80237 209.022 5.23636V71.0988C209.022 75.3961 205.633 77.1415 197.353 77.1415H172.678V96L135.638 77.151H15.6689C7.8102 77.151 3.99992 75.1684 3.99992 71.1083V5.24585C3.99992 1.81186 9.86189 0.00948638 15.6689 0.00948638H197.353V0Z" fill="white"/>
</g>
<path d="M20.0781 25.0464V14.5776H21.4844V25.0464H20.0781ZM16.4688 15.9058V14.5776H25.0938V15.9058H16.4688ZM26.875 25.0464V17.2339H28.1562V25.0464H26.875ZM28.1562 20.3276V18.7964C28.4583 18.2756 28.8229 17.8589 29.25 17.5464C29.6771 17.2339 30.1146 17.0776 30.5625 17.0776C30.8646 17.0776 31.1354 17.1297 31.375 17.2339V18.7183C31.2188 18.6245 31.0573 18.5516 30.8906 18.4995C30.724 18.4474 30.5521 18.4214 30.375 18.4214C29.8438 18.4214 29.4115 18.6089 29.0781 18.9839C28.7552 19.3589 28.4479 19.8068 28.1562 20.3276ZM36.1094 25.2808C35.4427 25.2808 34.8333 25.1141 34.2812 24.7808C33.7292 24.437 33.2865 23.9631 32.9531 23.3589C32.6302 22.7547 32.4688 22.0568 32.4688 21.2651C32.4688 20.4006 32.6302 19.6558 32.9531 19.0308C33.2865 18.4058 33.7396 17.9266 34.3125 17.5933C34.8854 17.2495 35.526 17.0776 36.2344 17.0776C36.6823 17.0776 37.1354 17.187 37.5938 17.4058C38.0625 17.6141 38.4635 17.9058 38.7969 18.2808V17.2339H40.0781V25.0464H38.7969V23.7183C38.526 24.1349 38.1562 24.4995 37.6875 24.812C37.2292 25.1245 36.7031 25.2808 36.1094 25.2808ZM36.3125 24.0308C36.7917 24.0308 37.2188 23.9058 37.5938 23.6558C37.9688 23.4058 38.2656 23.062 38.4844 22.6245C38.7031 22.1766 38.8073 21.6766 38.7969 21.1245L38.7812 19.6245C38.4583 19.2183 38.1094 18.9006 37.7344 18.6714C37.3698 18.4422 36.9479 18.3276 36.4688 18.3276C35.9062 18.3276 35.4271 18.4683 35.0312 18.7495C34.6354 19.0308 34.3281 19.3953 34.1094 19.8433C33.901 20.2808 33.7969 20.7547 33.7969 21.2651C33.7969 21.7651 33.901 22.2287 34.1094 22.6558C34.3177 23.0724 34.6094 23.4058 34.9844 23.6558C35.3698 23.9058 35.8125 24.0308 36.3125 24.0308ZM48.1719 25.0464L48.1562 20.4058C48.1562 19.7287 48.0052 19.2131 47.7031 18.8589C47.4115 18.5047 46.9583 18.3276 46.3438 18.3276C45.9271 18.3276 45.5104 18.4839 45.0938 18.7964C44.6875 19.0985 44.3281 19.4526 44.0156 19.8589V18.4683C44.1823 18.2599 44.3958 18.0516 44.6562 17.8433C44.9167 17.6245 45.2083 17.4422 45.5312 17.2964C45.8646 17.1506 46.2083 17.0776 46.5625 17.0776C47.0938 17.0776 47.5781 17.1974 48.0156 17.437C48.4531 17.6662 48.8021 18.0203 49.0625 18.4995C49.3229 18.9683 49.4531 19.562 49.4531 20.2808V25.0464H48.1719ZM42.7344 25.0464V17.2339H44.0156V25.0464H42.7344ZM53.7344 25.2808C53.4323 25.2808 53.1146 25.2391 52.7812 25.1558C52.4583 25.0828 52.1667 24.9943 51.9062 24.8901C51.6458 24.7756 51.4531 24.6766 51.3281 24.5933V23.2183C51.474 23.3224 51.6771 23.4422 51.9375 23.5776C52.2083 23.7026 52.4948 23.812 52.7969 23.9058C53.099 23.9891 53.3802 24.0308 53.6406 24.0308C54.1302 24.0308 54.5156 23.9214 54.7969 23.7026C55.0885 23.4839 55.2344 23.2131 55.2344 22.8901C55.2344 22.6401 55.1354 22.4422 54.9375 22.2964C54.75 22.1506 54.474 22.0099 54.1094 21.8745L52.9531 21.4526C52.349 21.2235 51.9479 20.937 51.75 20.5933C51.5521 20.2391 51.4531 19.8381 51.4531 19.3901C51.4531 18.9422 51.5625 18.5464 51.7812 18.2026C52.0104 17.8589 52.3333 17.5881 52.75 17.3901C53.1667 17.1818 53.651 17.0776 54.2031 17.0776C54.6615 17.0776 55.0885 17.1453 55.4844 17.2808C55.8802 17.4058 56.1667 17.536 56.3438 17.6714V19.0464C56.125 18.8797 55.8281 18.7183 55.4531 18.562C55.0781 18.4058 54.6927 18.3276 54.2969 18.3276C53.8073 18.3276 53.4375 18.4422 53.1875 18.6714C52.9479 18.9006 52.8281 19.1401 52.8281 19.3901C52.8281 19.5881 52.8958 19.7912 53.0312 19.9995C53.1771 20.1974 53.4271 20.3589 53.7812 20.4839L55.0938 20.9526C55.6042 21.1297 55.9844 21.3849 56.2344 21.7183C56.4844 22.0516 56.6094 22.4422 56.6094 22.8901C56.6094 23.3276 56.4844 23.7287 56.2344 24.0933C55.9948 24.4578 55.6562 24.7495 55.2188 24.9683C54.7917 25.1766 54.2969 25.2808 53.7344 25.2808ZM59.0469 25.0464V16.2339C59.0469 15.6193 59.1667 15.1193 59.4062 14.7339C59.6458 14.3381 59.9531 14.0464 60.3281 13.8589C60.7031 13.661 61.0833 13.562 61.4688 13.562C61.7396 13.562 61.9844 13.5985 62.2031 13.6714C62.4219 13.7443 62.6094 13.8485 62.7656 13.9839V15.1089C62.6094 15.0047 62.4219 14.9214 62.2031 14.8589C61.9844 14.7964 61.7656 14.7703 61.5469 14.7808C61.1615 14.7912 60.8594 14.9162 60.6406 15.1558C60.4323 15.3849 60.3281 15.7912 60.3281 16.3745V25.0464H59.0469ZM57.8125 18.437V17.2339H62.6094V18.437H57.8125ZM67.8438 25.2808C67.25 25.2808 66.7031 25.1766 66.2031 24.9683C65.7135 24.7495 65.2812 24.4526 64.9062 24.0776C64.5417 23.6922 64.2604 23.2547 64.0625 22.7651C63.8646 22.2651 63.7656 21.7391 63.7656 21.187C63.7656 20.6349 63.8646 20.1141 64.0625 19.6245C64.2604 19.1245 64.5417 18.687 64.9062 18.312C65.2812 17.9266 65.7135 17.6245 66.2031 17.4058C66.7031 17.187 67.25 17.0776 67.8438 17.0776C68.4375 17.0776 68.9792 17.187 69.4688 17.4058C69.9688 17.6245 70.401 17.9266 70.7656 18.312C71.1406 18.687 71.4271 19.1245 71.625 19.6245C71.8229 20.1141 71.9219 20.6349 71.9219 21.187C71.9219 21.7391 71.8229 22.2651 71.625 22.7651C71.4271 23.2547 71.1406 23.6922 70.7656 24.0776C70.401 24.4526 69.9688 24.7495 69.4688 24.9683C68.9792 25.1766 68.4375 25.2808 67.8438 25.2808ZM67.8438 24.0308C68.4062 24.0308 68.8906 23.9006 69.2969 23.6401C69.7135 23.3693 70.0312 23.0203 70.25 22.5933C70.4792 22.1558 70.5938 21.687 70.5938 21.187C70.5938 20.6766 70.4792 20.2078 70.25 19.7808C70.0312 19.3433 69.7135 18.9943 69.2969 18.7339C68.8906 18.4631 68.4062 18.3276 67.8438 18.3276C67.2917 18.3276 66.8073 18.4631 66.3906 18.7339C65.974 18.9943 65.651 19.3433 65.4219 19.7808C65.2031 20.2078 65.0938 20.6766 65.0938 21.187C65.0938 21.687 65.2031 22.1558 65.4219 22.5933C65.651 23.0203 65.974 23.3693 66.3906 23.6401C66.8073 23.9006 67.2917 24.0308 67.8438 24.0308ZM74.0312 25.0464V17.2339H75.3125V25.0464H74.0312ZM75.3125 20.3276V18.7964C75.6146 18.2756 75.9792 17.8589 76.4062 17.5464C76.8333 17.2339 77.2708 17.0776 77.7188 17.0776C78.0208 17.0776 78.2917 17.1297 78.5312 17.2339V18.7183C78.375 18.6245 78.2135 18.5516 78.0469 18.4995C77.8802 18.4474 77.7083 18.4214 77.5312 18.4214C77 18.4214 76.5677 18.6089 76.2344 18.9839C75.9115 19.3589 75.6042 19.8068 75.3125 20.3276ZM90.9531 25.0464L90.9375 20.4058C90.9375 19.7287 90.7604 19.2131 90.4062 18.8589C90.0625 18.5047 89.5833 18.3276 88.9688 18.3276C88.4896 18.3276 88.0781 18.4839 87.7344 18.7964C87.3906 19.0985 87.0625 19.4526 86.75 19.8589L86.375 18.812C86.7604 18.3537 87.1719 17.9526 87.6094 17.6089C88.0573 17.2547 88.5833 17.0776 89.1875 17.0776C89.7188 17.0776 90.2135 17.1974 90.6719 17.437C91.1406 17.6662 91.5156 18.0203 91.7969 18.4995C92.0885 18.9683 92.2344 19.562 92.2344 20.2808V25.0464H90.9531ZM80.1719 25.0464V17.2339H81.4531V25.0464H80.1719ZM85.5625 25.0464L85.5469 20.4058C85.5469 19.7287 85.3698 19.2131 85.0156 18.8589C84.6719 18.5047 84.1927 18.3276 83.5781 18.3276C83.099 18.3276 82.6667 18.4839 82.2812 18.7964C81.9062 19.0985 81.5625 19.4526 81.25 19.8589V18.4683C81.4167 18.2599 81.6198 18.0516 81.8594 17.8433C82.099 17.6245 82.3802 17.4422 82.7031 17.2964C83.026 17.1506 83.3906 17.0776 83.7969 17.0776C84.4323 17.0776 85.0156 17.2495 85.5469 17.5933C86.0885 17.9266 86.4635 18.4318 86.6719 19.1089L86.8438 19.4839V25.0464H85.5625ZM98.1875 25.2808C97.5938 25.2808 97.0469 25.1766 96.5469 24.9683C96.0573 24.7495 95.625 24.4526 95.25 24.0776C94.8854 23.6922 94.6042 23.2547 94.4062 22.7651C94.2083 22.2651 94.1094 21.7391 94.1094 21.187C94.1094 20.4474 94.2708 19.7651 94.5938 19.1401C94.9167 18.5151 95.3594 18.0151 95.9219 17.6401C96.4948 17.2651 97.1458 17.0776 97.875 17.0776C98.6771 17.0776 99.3438 17.2443 99.875 17.5776C100.406 17.911 100.802 18.3641 101.062 18.937C101.333 19.5099 101.469 20.1558 101.469 20.8745V21.6401H95.3125V20.5464H100.203C100.151 20.036 100.005 19.6193 99.7656 19.2964C99.5365 18.9735 99.2552 18.7339 98.9219 18.5776C98.5885 18.411 98.2396 18.3276 97.875 18.3276C97.375 18.3276 96.9427 18.4631 96.5781 18.7339C96.2135 18.9943 95.9323 19.3433 95.7344 19.7808C95.5365 20.2078 95.4375 20.6766 95.4375 21.187C95.4375 21.687 95.5469 22.1558 95.7656 22.5933C95.9948 23.0203 96.3177 23.3693 96.7344 23.6401C97.151 23.9006 97.6354 24.0308 98.1875 24.0308C98.75 24.0308 99.2708 23.8901 99.75 23.6089C100.24 23.3172 100.651 22.9995 100.984 22.6558V24.0464C100.839 24.2235 100.62 24.411 100.328 24.6089C100.047 24.7964 99.7188 24.9526 99.3438 25.0776C98.9792 25.2131 98.5938 25.2808 98.1875 25.2808ZM118.07 25.2808C117.768 25.2808 117.451 25.2391 117.117 25.1558C116.794 25.0828 116.503 24.9943 116.242 24.8901C115.982 24.7756 115.789 24.6766 115.664 24.5933V23.2183C115.81 23.3224 116.013 23.4422 116.273 23.5776C116.544 23.7026 116.831 23.812 117.133 23.9058C117.435 23.9891 117.716 24.0308 117.977 24.0308C118.466 24.0308 118.852 23.9214 119.133 23.7026C119.424 23.4839 119.57 23.2131 119.57 22.8901C119.57 22.6401 119.471 22.4422 119.273 22.2964C119.086 22.1506 118.81 22.0099 118.445 21.8745L117.289 21.4526C116.685 21.2235 116.284 20.937 116.086 20.5933C115.888 20.2391 115.789 19.8381 115.789 19.3901C115.789 18.9422 115.898 18.5464 116.117 18.2026C116.346 17.8589 116.669 17.5881 117.086 17.3901C117.503 17.1818 117.987 17.0776 118.539 17.0776C118.997 17.0776 119.424 17.1453 119.82 17.2808C120.216 17.4058 120.503 17.536 120.68 17.6714V19.0464C120.461 18.8797 120.164 18.7183 119.789 18.562C119.414 18.4058 119.029 18.3276 118.633 18.3276C118.143 18.3276 117.773 18.4422 117.523 18.6714C117.284 18.9006 117.164 19.1401 117.164 19.3901C117.164 19.5881 117.232 19.7912 117.367 19.9995C117.513 20.1974 117.763 20.3589 118.117 20.4839L119.43 20.9526C119.94 21.1297 120.32 21.3849 120.57 21.7183C120.82 22.0516 120.945 22.4422 120.945 22.8901C120.945 23.3276 120.82 23.7287 120.57 24.0933C120.331 24.4578 119.992 24.7495 119.555 24.9683C119.128 25.1766 118.633 25.2808 118.07 25.2808ZM125.977 25.2026C125.352 25.2026 124.789 25.0672 124.289 24.7964C123.789 24.5256 123.393 24.1401 123.102 23.6401C122.81 23.1401 122.664 22.5464 122.664 21.8589V17.2339H123.992V21.8589C123.992 22.536 124.19 23.0568 124.586 23.4214C124.992 23.7756 125.456 23.9526 125.977 23.9526C126.497 23.9526 126.956 23.7756 127.352 23.4214C127.758 23.0568 127.961 22.536 127.961 21.8589V17.2339H129.289V21.8589C129.289 22.5464 129.143 23.1401 128.852 23.6401C128.56 24.1401 128.164 24.5256 127.664 24.7964C127.164 25.0672 126.602 25.2026 125.977 25.2026ZM134.805 25.2808C134.138 25.2808 133.529 25.1141 132.977 24.7808C132.424 24.437 131.982 23.9631 131.648 23.3589C131.326 22.7547 131.164 22.0568 131.164 21.2651C131.164 20.4006 131.326 19.6558 131.648 19.0308C131.982 18.4058 132.435 17.9266 133.008 17.5933C133.581 17.2495 134.221 17.0776 134.93 17.0776C135.378 17.0776 135.831 17.187 136.289 17.4058C136.758 17.6141 137.159 17.9058 137.492 18.2808V17.2339H138.773V25.0464H137.492V23.7183C137.221 24.1349 136.852 24.4995 136.383 24.812C135.924 25.1245 135.398 25.2808 134.805 25.2808ZM135.008 24.0308C135.487 24.0308 135.914 23.9058 136.289 23.6558C136.664 23.4058 136.961 23.062 137.18 22.6245C137.398 22.1766 137.503 21.6766 137.492 21.1245L137.477 19.6245C137.154 19.2183 136.805 18.9006 136.43 18.6714C136.065 18.4422 135.643 18.3276 135.164 18.3276C134.602 18.3276 134.122 18.4683 133.727 18.7495C133.331 19.0308 133.023 19.3953 132.805 19.8433C132.596 20.2808 132.492 20.7547 132.492 21.2651C132.492 21.7651 132.596 22.2287 132.805 22.6558C133.013 23.0724 133.305 23.4058 133.68 23.6558C134.065 23.9058 134.508 24.0308 135.008 24.0308ZM154.062 25.0464V17.2339H155.344V25.0464H154.062ZM155.344 20.3276V18.7964C155.646 18.2756 156.01 17.8589 156.438 17.5464C156.865 17.2339 157.302 17.0776 157.75 17.0776C158.052 17.0776 158.323 17.1297 158.562 17.2339V18.7183C158.406 18.6245 158.245 18.5516 158.078 18.4995C157.911 18.4474 157.74 18.4214 157.562 18.4214C157.031 18.4214 156.599 18.6089 156.266 18.9839C155.943 19.3589 155.635 19.8068 155.344 20.3276ZM163.734 25.2808C163.141 25.2808 162.594 25.1766 162.094 24.9683C161.604 24.7495 161.172 24.4526 160.797 24.0776C160.432 23.6922 160.151 23.2547 159.953 22.7651C159.755 22.2651 159.656 21.7391 159.656 21.187C159.656 20.6349 159.755 20.1141 159.953 19.6245C160.151 19.1245 160.432 18.687 160.797 18.312C161.172 17.9266 161.604 17.6245 162.094 17.4058C162.594 17.187 163.141 17.0776 163.734 17.0776C164.328 17.0776 164.87 17.187 165.359 17.4058C165.859 17.6245 166.292 17.9266 166.656 18.312C167.031 18.687 167.318 19.1245 167.516 19.6245C167.714 20.1141 167.812 20.6349 167.812 21.187C167.812 21.7391 167.714 22.2651 167.516 22.7651C167.318 23.2547 167.031 23.6922 166.656 24.0776C166.292 24.4526 165.859 24.7495 165.359 24.9683C164.87 25.1766 164.328 25.2808 163.734 25.2808ZM163.734 24.0308C164.297 24.0308 164.781 23.9006 165.188 23.6401C165.604 23.3693 165.922 23.0203 166.141 22.5933C166.37 22.1558 166.484 21.687 166.484 21.187C166.484 20.6766 166.37 20.2078 166.141 19.7808C165.922 19.3433 165.604 18.9943 165.188 18.7339C164.781 18.4631 164.297 18.3276 163.734 18.3276C163.182 18.3276 162.698 18.4631 162.281 18.7339C161.865 18.9943 161.542 19.3433 161.312 19.7808C161.094 20.2078 160.984 20.6766 160.984 21.187C160.984 21.687 161.094 22.1558 161.312 22.5933C161.542 23.0203 161.865 23.3693 162.281 23.6401C162.698 23.9006 163.182 24.0308 163.734 24.0308ZM172.641 25.2808C172.203 25.2808 171.823 25.1922 171.5 25.0151C171.177 24.8276 170.927 24.5672 170.75 24.2339C170.573 23.9006 170.484 23.5151 170.484 23.0776V18.437H168.984V18.062C169.495 17.8328 169.922 17.4578 170.266 16.937C170.609 16.4058 170.911 15.7547 171.172 14.9839H171.766V17.2339H174.281V18.437H171.766V23.0151C171.766 23.3381 171.87 23.5933 172.078 23.7808C172.297 23.9683 172.578 24.062 172.922 24.062C173.234 24.062 173.516 24.0256 173.766 23.9526C174.026 23.8693 174.234 23.7808 174.391 23.687V24.812C174.182 24.9787 173.938 25.0985 173.656 25.1714C173.375 25.2443 173.036 25.2808 172.641 25.2808ZM177.906 15.6089C177.604 15.6089 177.349 15.4995 177.141 15.2808C176.943 15.062 176.844 14.8172 176.844 14.5464C176.844 14.2651 176.943 14.0203 177.141 13.812C177.349 13.5933 177.604 13.4839 177.906 13.4839C178.104 13.4839 178.281 13.536 178.438 13.6401C178.604 13.7339 178.734 13.8641 178.828 14.0308C178.922 14.187 178.969 14.3589 178.969 14.5464C178.969 14.7235 178.922 14.8953 178.828 15.062C178.734 15.2287 178.604 15.3641 178.438 15.4683C178.281 15.562 178.104 15.6089 177.906 15.6089ZM177.422 25.0464V17.2339H178.703V25.0464H177.422ZM176.188 18.437V17.2339H178.703V18.437H176.188ZM186.906 25.0464L186.891 20.4058C186.891 19.7287 186.74 19.2131 186.438 18.8589C186.146 18.5047 185.693 18.3276 185.078 18.3276C184.661 18.3276 184.245 18.4839 183.828 18.7964C183.422 19.0985 183.062 19.4526 182.75 19.8589V18.4683C182.917 18.2599 183.13 18.0516 183.391 17.8433C183.651 17.6245 183.943 17.4422 184.266 17.2964C184.599 17.1506 184.943 17.0776 185.297 17.0776C185.828 17.0776 186.312 17.1974 186.75 17.437C187.188 17.6662 187.536 18.0203 187.797 18.4995C188.057 18.9683 188.188 19.562 188.188 20.2808V25.0464H186.906ZM181.469 25.0464V17.2339H182.75V25.0464H181.469ZM193.703 25.2808C193.036 25.2808 192.427 25.1141 191.875 24.7808C191.323 24.437 190.88 23.9631 190.547 23.3589C190.224 22.7547 190.062 22.0568 190.062 21.2651C190.062 20.4006 190.224 19.6558 190.547 19.0308C190.88 18.4058 191.333 17.9266 191.906 17.5933C192.479 17.2495 193.12 17.0776 193.828 17.0776C194.276 17.0776 194.729 17.187 195.188 17.4058C195.656 17.6141 196.057 17.9058 196.391 18.2808V17.2339H197.672V25.0464H196.391V23.7183C196.12 24.1349 195.75 24.4995 195.281 24.812C194.823 25.1245 194.297 25.2808 193.703 25.2808ZM193.906 24.0308C194.385 24.0308 194.812 23.9058 195.188 23.6558C195.562 23.4058 195.859 23.062 196.078 22.6245C196.297 22.1766 196.401 21.6766 196.391 21.1245L196.375 19.6245C196.052 19.2183 195.703 18.9006 195.328 18.6714C194.964 18.4422 194.542 18.3276 194.062 18.3276C193.5 18.3276 193.021 18.4683 192.625 18.7495C192.229 19.0308 191.922 19.3953 191.703 19.8433C191.495 20.2808 191.391 20.7547 191.391 21.2651C191.391 21.7651 191.495 22.2287 191.703 22.6558C191.911 23.0724 192.203 23.4058 192.578 23.6558C192.964 23.9058 193.406 24.0308 193.906 24.0308ZM20.4219 44.2808C19.7552 44.2808 19.1458 44.1141 18.5938 43.7808C18.0417 43.437 17.599 42.9631 17.2656 42.3589C16.9427 41.7547 16.7812 41.0568 16.7812 40.2651C16.7812 39.4006 16.9427 38.6558 17.2656 38.0308C17.599 37.4058 18.0521 36.9266 18.625 36.5933C19.1979 36.2495 19.8385 36.0776 20.5469 36.0776C20.9948 36.0776 21.4479 36.187 21.9062 36.4058C22.375 36.6141 22.776 36.9058 23.1094 37.2808V32.7964H24.3906V44.0464H23.1094V42.7183C22.8385 43.1349 22.4688 43.4995 22 43.812C21.5417 44.1245 21.0156 44.2808 20.4219 44.2808ZM20.625 43.0308C21.1042 43.0308 21.5312 42.9058 21.9062 42.6558C22.2812 42.4058 22.5781 42.062 22.7969 41.6245C23.0156 41.1766 23.1198 40.6766 23.1094 40.1245L23.0938 38.6245C22.7708 38.2183 22.4219 37.9058 22.0469 37.687C21.6823 37.4683 21.2604 37.3589 20.7812 37.3589C20.2188 37.3589 19.7396 37.4995 19.3438 37.7808C18.9479 38.0516 18.6406 38.4058 18.4219 38.8433C18.2135 39.2808 18.1094 39.7547 18.1094 40.2651C18.1094 40.7651 18.2135 41.2287 18.4219 41.6558C18.6302 42.0724 18.9219 42.4058 19.2969 42.6558C19.6823 42.9058 20.125 43.0308 20.625 43.0308ZM30.5781 44.2808C29.9844 44.2808 29.4375 44.1766 28.9375 43.9683C28.4479 43.7495 28.0156 43.4526 27.6406 43.0776C27.276 42.6922 26.9948 42.2547 26.7969 41.7651C26.599 41.2651 26.5 40.7391 26.5 40.187C26.5 39.4474 26.6615 38.7651 26.9844 38.1401C27.3073 37.5151 27.75 37.0151 28.3125 36.6401C28.8854 36.2651 29.5365 36.0776 30.2656 36.0776C31.0677 36.0776 31.7344 36.2443 32.2656 36.5776C32.7969 36.911 33.1927 37.3641 33.4531 37.937C33.724 38.5099 33.8594 39.1558 33.8594 39.8745V40.6401H27.7031V39.5464H32.5938C32.5417 39.036 32.3958 38.6193 32.1562 38.2964C31.9271 37.9735 31.6458 37.7339 31.3125 37.5776C30.9792 37.411 30.6302 37.3276 30.2656 37.3276C29.7656 37.3276 29.3333 37.4631 28.9688 37.7339C28.6042 37.9943 28.3229 38.3433 28.125 38.7808C27.9271 39.2078 27.8281 39.6766 27.8281 40.187C27.8281 40.687 27.9375 41.1558 28.1562 41.5933C28.3854 42.0203 28.7083 42.3693 29.125 42.6401C29.5417 42.9006 30.026 43.0308 30.5781 43.0308C31.1406 43.0308 31.6615 42.8901 32.1406 42.6089C32.6302 42.3172 33.0417 41.9995 33.375 41.6558V43.0464C33.2292 43.2235 33.0104 43.411 32.7188 43.6089C32.4375 43.7964 32.1094 43.9526 31.7344 44.0776C31.3698 44.2131 30.9844 44.2808 30.5781 44.2808ZM44.1875 44.2808C43.5938 44.2808 43.0469 44.1766 42.5469 43.9683C42.0573 43.7495 41.625 43.4526 41.25 43.0776C40.8854 42.6922 40.6042 42.2547 40.4062 41.7651C40.2083 41.2651 40.1094 40.7391 40.1094 40.187C40.1094 39.6349 40.2083 39.1141 40.4062 38.6245C40.6042 38.1245 40.8854 37.687 41.25 37.312C41.625 36.9266 42.0573 36.6245 42.5469 36.4058C43.0469 36.187 43.5938 36.0776 44.1875 36.0776C44.7604 36.0776 45.2552 36.1714 45.6719 36.3589C46.0885 36.536 46.375 36.6974 46.5312 36.8433V38.1401C46.2396 37.9214 45.9062 37.7339 45.5312 37.5776C45.1562 37.411 44.7083 37.3276 44.1875 37.3276C43.6354 37.3276 43.151 37.4631 42.7344 37.7339C42.3177 37.9943 41.9948 38.3433 41.7656 38.7808C41.5469 39.2078 41.4375 39.6766 41.4375 40.187C41.4375 40.687 41.5469 41.1558 41.7656 41.5933C41.9948 42.0203 42.3177 42.3693 42.7344 42.6401C43.151 42.9006 43.6354 43.0308 44.1875 43.0308C44.7083 43.0308 45.1562 42.9526 45.5312 42.7964C45.9062 42.6297 46.2396 42.437 46.5312 42.2183V43.5151C46.375 43.6714 46.0885 43.8381 45.6719 44.0151C45.2552 44.1922 44.7604 44.2808 44.1875 44.2808ZM51.7188 44.2026C51.0938 44.2026 50.5312 44.0672 50.0312 43.7964C49.5312 43.5256 49.1354 43.1401 48.8438 42.6401C48.5521 42.1401 48.4062 41.5464 48.4062 40.8589V36.2339H49.7344V40.8589C49.7344 41.536 49.9323 42.0568 50.3281 42.4214C50.7344 42.7756 51.1979 42.9526 51.7188 42.9526C52.2396 42.9526 52.6979 42.7756 53.0938 42.4214C53.5 42.0568 53.7031 41.536 53.7031 40.8589V36.2339H55.0312V40.8589C55.0312 41.5464 54.8854 42.1401 54.5938 42.6401C54.3021 43.1401 53.9062 43.5256 53.4062 43.7964C52.9062 44.0672 52.3438 44.2026 51.7188 44.2026ZM58.7031 34.6089C58.401 34.6089 58.1458 34.4995 57.9375 34.2808C57.7396 34.062 57.6406 33.8172 57.6406 33.5464C57.6406 33.2651 57.7396 33.0203 57.9375 32.812C58.1458 32.5933 58.401 32.4839 58.7031 32.4839C58.901 32.4839 59.0781 32.536 59.2344 32.6401C59.401 32.7339 59.5312 32.8641 59.625 33.0308C59.7188 33.187 59.7656 33.3589 59.7656 33.5464C59.7656 33.7235 59.7188 33.8953 59.625 34.062C59.5312 34.2287 59.401 34.3641 59.2344 34.4683C59.0781 34.562 58.901 34.6089 58.7031 34.6089ZM58.2188 44.0464V36.2339H59.5V44.0464H58.2188ZM56.9844 37.437V36.2339H59.5V37.437H56.9844ZM65.3594 44.2808C64.6927 44.2808 64.0833 44.1141 63.5312 43.7808C62.9792 43.437 62.5365 42.9631 62.2031 42.3589C61.8802 41.7547 61.7188 41.0568 61.7188 40.2651C61.7188 39.4006 61.8802 38.6558 62.2031 38.0308C62.5365 37.4058 62.9896 36.9266 63.5625 36.5933C64.1354 36.2495 64.776 36.0776 65.4844 36.0776C65.9323 36.0776 66.3854 36.187 66.8438 36.4058C67.3125 36.6141 67.7135 36.9058 68.0469 37.2808V32.7964H69.3281V44.0464H68.0469V42.7183C67.776 43.1349 67.4062 43.4995 66.9375 43.812C66.4792 44.1245 65.9531 44.2808 65.3594 44.2808ZM65.5625 43.0308C66.0417 43.0308 66.4688 42.9058 66.8438 42.6558C67.2188 42.4058 67.5156 42.062 67.7344 41.6245C67.9531 41.1766 68.0573 40.6766 68.0469 40.1245L68.0312 38.6245C67.7083 38.2183 67.3594 37.9058 66.9844 37.687C66.6198 37.4683 66.1979 37.3589 65.7188 37.3589C65.1562 37.3589 64.6771 37.4995 64.2812 37.7808C63.8854 38.0516 63.5781 38.4058 63.3594 38.8433C63.151 39.2808 63.0469 39.7547 63.0469 40.2651C63.0469 40.7651 63.151 41.2287 63.3594 41.6558C63.5677 42.0724 63.8594 42.4058 64.2344 42.6558C64.6198 42.9058 65.0625 43.0308 65.5625 43.0308ZM75.0781 44.2808C74.4115 44.2808 73.8021 44.1141 73.25 43.7808C72.6979 43.437 72.2552 42.9631 71.9219 42.3589C71.599 41.7547 71.4375 41.0568 71.4375 40.2651C71.4375 39.4006 71.599 38.6558 71.9219 38.0308C72.2552 37.4058 72.7083 36.9266 73.2812 36.5933C73.8542 36.2495 74.4948 36.0776 75.2031 36.0776C75.651 36.0776 76.1042 36.187 76.5625 36.4058C77.0312 36.6141 77.4323 36.9058 77.7656 37.2808V36.2339H79.0469V44.0464H77.7656V42.7183C77.4948 43.1349 77.125 43.4995 76.6562 43.812C76.1979 44.1245 75.6719 44.2808 75.0781 44.2808ZM75.2812 43.0308C75.7604 43.0308 76.1875 42.9058 76.5625 42.6558C76.9375 42.4058 77.2344 42.062 77.4531 41.6245C77.6719 41.1766 77.776 40.6766 77.7656 40.1245L77.75 38.6245C77.4271 38.2183 77.0781 37.9006 76.7031 37.6714C76.3385 37.4422 75.9167 37.3276 75.4375 37.3276C74.875 37.3276 74.3958 37.4683 74 37.7495C73.6042 38.0308 73.2969 38.3953 73.0781 38.8433C72.8698 39.2808 72.7656 39.7547 72.7656 40.2651C72.7656 40.7651 72.8698 41.2287 73.0781 41.6558C73.2865 42.0724 73.5781 42.4058 73.9531 42.6558C74.3385 42.9058 74.7812 43.0308 75.2812 43.0308ZM84.7969 44.2808C84.1302 44.2808 83.5208 44.1141 82.9688 43.7808C82.4167 43.437 81.974 42.9631 81.6406 42.3589C81.3177 41.7547 81.1562 41.0568 81.1562 40.2651C81.1562 39.4006 81.3177 38.6558 81.6406 38.0308C81.974 37.4058 82.4271 36.9266 83 36.5933C83.5729 36.2495 84.2135 36.0776 84.9219 36.0776C85.3698 36.0776 85.8229 36.187 86.2812 36.4058C86.75 36.6141 87.151 36.9058 87.4844 37.2808V32.7964H88.7656V44.0464H87.4844V42.7183C87.2135 43.1349 86.8438 43.4995 86.375 43.812C85.9167 44.1245 85.3906 44.2808 84.7969 44.2808ZM85 43.0308C85.4792 43.0308 85.9062 42.9058 86.2812 42.6558C86.6562 42.4058 86.9531 42.062 87.1719 41.6245C87.3906 41.1766 87.4948 40.6766 87.4844 40.1245L87.4688 38.6245C87.1458 38.2183 86.7969 37.9058 86.4219 37.687C86.0573 37.4683 85.6354 37.3589 85.1562 37.3589C84.5938 37.3589 84.1146 37.4995 83.7188 37.7808C83.3229 38.0516 83.0156 38.4058 82.7969 38.8433C82.5885 39.2808 82.4844 39.7547 82.4844 40.2651C82.4844 40.7651 82.5885 41.2287 82.7969 41.6558C83.0052 42.0724 83.2969 42.4058 83.6719 42.6558C84.0573 42.9058 84.5 43.0308 85 43.0308ZM94.9531 44.2808C94.3594 44.2808 93.8125 44.1766 93.3125 43.9683C92.8229 43.7495 92.3906 43.4526 92.0156 43.0776C91.651 42.6922 91.3698 42.2547 91.1719 41.7651C90.974 41.2651 90.875 40.7391 90.875 40.187C90.875 39.6349 90.974 39.1141 91.1719 38.6245C91.3698 38.1245 91.651 37.687 92.0156 37.312C92.3906 36.9266 92.8229 36.6245 93.3125 36.4058C93.8125 36.187 94.3594 36.0776 94.9531 36.0776C95.5469 36.0776 96.0885 36.187 96.5781 36.4058C97.0781 36.6245 97.5104 36.9266 97.875 37.312C98.25 37.687 98.5365 38.1245 98.7344 38.6245C98.9323 39.1141 99.0312 39.6349 99.0312 40.187C99.0312 40.7391 98.9323 41.2651 98.7344 41.7651C98.5365 42.2547 98.25 42.6922 97.875 43.0776C97.5104 43.4526 97.0781 43.7495 96.5781 43.9683C96.0885 44.1766 95.5469 44.2808 94.9531 44.2808ZM94.9531 43.0308C95.5156 43.0308 96 42.9006 96.4062 42.6401C96.8229 42.3693 97.1406 42.0203 97.3594 41.5933C97.5885 41.1558 97.7031 40.687 97.7031 40.187C97.7031 39.6766 97.5885 39.2078 97.3594 38.7808C97.1406 38.3433 96.8229 37.9943 96.4062 37.7339C96 37.4631 95.5156 37.3276 94.9531 37.3276C94.401 37.3276 93.9167 37.4631 93.5 37.7339C93.0833 37.9943 92.7604 38.3433 92.5312 38.7808C92.3125 39.2078 92.2031 39.6766 92.2031 40.187C92.2031 40.687 92.3125 41.1558 92.5312 41.5933C92.7604 42.0203 93.0833 42.3693 93.5 42.6401C93.9167 42.9006 94.401 43.0308 94.9531 43.0308ZM103 44.2808C102.698 44.2808 102.38 44.2391 102.047 44.1558C101.724 44.0828 101.432 43.9943 101.172 43.8901C100.911 43.7756 100.719 43.6766 100.594 43.5933V42.2183C100.74 42.3224 100.943 42.4422 101.203 42.5776C101.474 42.7026 101.76 42.812 102.062 42.9058C102.365 42.9891 102.646 43.0308 102.906 43.0308C103.396 43.0308 103.781 42.9214 104.062 42.7026C104.354 42.4839 104.5 42.2131 104.5 41.8901C104.5 41.6401 104.401 41.4422 104.203 41.2964C104.016 41.1506 103.74 41.0099 103.375 40.8745L102.219 40.4526C101.615 40.2235 101.214 39.937 101.016 39.5933C100.818 39.2391 100.719 38.8381 100.719 38.3901C100.719 37.9422 100.828 37.5464 101.047 37.2026C101.276 36.8589 101.599 36.5881 102.016 36.3901C102.432 36.1818 102.917 36.0776 103.469 36.0776C103.927 36.0776 104.354 36.1453 104.75 36.2808C105.146 36.4058 105.432 36.536 105.609 36.6714V38.0464C105.391 37.8797 105.094 37.7183 104.719 37.562C104.344 37.4058 103.958 37.3276 103.562 37.3276C103.073 37.3276 102.703 37.4422 102.453 37.6714C102.214 37.9006 102.094 38.1401 102.094 38.3901C102.094 38.5881 102.161 38.7912 102.297 38.9995C102.443 39.1974 102.693 39.3589 103.047 39.4839L104.359 39.9526C104.87 40.1297 105.25 40.3849 105.5 40.7183C105.75 41.0516 105.875 41.4422 105.875 41.8901C105.875 42.3276 105.75 42.7287 105.5 43.0933C105.26 43.4578 104.922 43.7495 104.484 43.9683C104.057 44.1766 103.562 44.2808 103 44.2808ZM116.047 44.2808C115.453 44.2808 114.906 44.1766 114.406 43.9683C113.917 43.7495 113.484 43.4526 113.109 43.0776C112.745 42.6922 112.464 42.2547 112.266 41.7651C112.068 41.2651 111.969 40.7391 111.969 40.187C111.969 39.6349 112.068 39.1141 112.266 38.6245C112.464 38.1245 112.745 37.687 113.109 37.312C113.484 36.9266 113.917 36.6245 114.406 36.4058C114.906 36.187 115.453 36.0776 116.047 36.0776C116.62 36.0776 117.115 36.1714 117.531 36.3589C117.948 36.536 118.234 36.6974 118.391 36.8433V38.1401C118.099 37.9214 117.766 37.7339 117.391 37.5776C117.016 37.411 116.568 37.3276 116.047 37.3276C115.495 37.3276 115.01 37.4631 114.594 37.7339C114.177 37.9943 113.854 38.3433 113.625 38.7808C113.406 39.2078 113.297 39.6766 113.297 40.187C113.297 40.687 113.406 41.1558 113.625 41.5933C113.854 42.0203 114.177 42.3693 114.594 42.6401C115.01 42.9006 115.495 43.0308 116.047 43.0308C116.568 43.0308 117.016 42.9526 117.391 42.7964C117.766 42.6297 118.099 42.437 118.391 42.2183V43.5151C118.234 43.6714 117.948 43.8381 117.531 44.0151C117.115 44.1922 116.62 44.2808 116.047 44.2808ZM124.031 44.2808C123.438 44.2808 122.891 44.1766 122.391 43.9683C121.901 43.7495 121.469 43.4526 121.094 43.0776C120.729 42.6922 120.448 42.2547 120.25 41.7651C120.052 41.2651 119.953 40.7391 119.953 40.187C119.953 39.6349 120.052 39.1141 120.25 38.6245C120.448 38.1245 120.729 37.687 121.094 37.312C121.469 36.9266 121.901 36.6245 122.391 36.4058C122.891 36.187 123.438 36.0776 124.031 36.0776C124.625 36.0776 125.167 36.187 125.656 36.4058C126.156 36.6245 126.589 36.9266 126.953 37.312C127.328 37.687 127.615 38.1245 127.812 38.6245C128.01 39.1141 128.109 39.6349 128.109 40.187C128.109 40.7391 128.01 41.2651 127.812 41.7651C127.615 42.2547 127.328 42.6922 126.953 43.0776C126.589 43.4526 126.156 43.7495 125.656 43.9683C125.167 44.1766 124.625 44.2808 124.031 44.2808ZM124.031 43.0308C124.594 43.0308 125.078 42.9006 125.484 42.6401C125.901 42.3693 126.219 42.0203 126.438 41.5933C126.667 41.1558 126.781 40.687 126.781 40.187C126.781 39.6766 126.667 39.2078 126.438 38.7808C126.219 38.3433 125.901 37.9943 125.484 37.7339C125.078 37.4631 124.594 37.3276 124.031 37.3276C123.479 37.3276 122.995 37.4631 122.578 37.7339C122.161 37.9943 121.839 38.3433 121.609 38.7808C121.391 39.2078 121.281 39.6766 121.281 40.187C121.281 40.687 121.391 41.1558 121.609 41.5933C121.839 42.0203 122.161 42.3693 122.578 42.6401C122.995 42.9006 123.479 43.0308 124.031 43.0308ZM141 44.0464L140.984 39.4058C140.984 38.7287 140.807 38.2131 140.453 37.8589C140.109 37.5047 139.63 37.3276 139.016 37.3276C138.536 37.3276 138.125 37.4839 137.781 37.7964C137.438 38.0985 137.109 38.4526 136.797 38.8589L136.422 37.812C136.807 37.3537 137.219 36.9526 137.656 36.6089C138.104 36.2547 138.63 36.0776 139.234 36.0776C139.766 36.0776 140.26 36.1974 140.719 36.437C141.188 36.6662 141.562 37.0203 141.844 37.4995C142.135 37.9683 142.281 38.562 142.281 39.2808V44.0464H141ZM130.219 44.0464V36.2339H131.5V44.0464H130.219ZM135.609 44.0464L135.594 39.4058C135.594 38.7287 135.417 38.2131 135.062 37.8589C134.719 37.5047 134.24 37.3276 133.625 37.3276C133.146 37.3276 132.714 37.4839 132.328 37.7964C131.953 38.0985 131.609 38.4526 131.297 38.8589V37.4683C131.464 37.2599 131.667 37.0516 131.906 36.8433C132.146 36.6245 132.427 36.4422 132.75 36.2964C133.073 36.1506 133.438 36.0776 133.844 36.0776C134.479 36.0776 135.062 36.2495 135.594 36.5933C136.135 36.9266 136.51 37.4318 136.719 38.1089L136.891 38.4839V44.0464H135.609ZM152.484 44.2808C151.818 44.2808 151.208 44.1141 150.656 43.7808C150.104 43.437 149.661 42.9631 149.328 42.3589C149.005 41.7547 148.844 41.0568 148.844 40.2651C148.844 39.4006 149.005 38.6558 149.328 38.0308C149.661 37.4058 150.115 36.9266 150.688 36.5933C151.26 36.2495 151.901 36.0776 152.609 36.0776C153.057 36.0776 153.51 36.187 153.969 36.4058C154.438 36.6141 154.839 36.9058 155.172 37.2808V36.2339H156.453V44.0464H155.172V42.7183C154.901 43.1349 154.531 43.4995 154.062 43.812C153.604 44.1245 153.078 44.2808 152.484 44.2808ZM152.688 43.0308C153.167 43.0308 153.594 42.9058 153.969 42.6558C154.344 42.4058 154.641 42.062 154.859 41.6245C155.078 41.1766 155.182 40.6766 155.172 40.1245L155.156 38.6245C154.833 38.2183 154.484 37.9006 154.109 37.6714C153.745 37.4422 153.323 37.3276 152.844 37.3276C152.281 37.3276 151.802 37.4683 151.406 37.7495C151.01 38.0308 150.703 38.3953 150.484 38.8433C150.276 39.2808 150.172 39.7547 150.172 40.2651C150.172 40.7651 150.276 41.2287 150.484 41.6558C150.693 42.0724 150.984 42.4058 151.359 42.6558C151.745 42.9058 152.188 43.0308 152.688 43.0308ZM163.797 47.7964V36.2339H165.078V37.562C165.349 37.1453 165.714 36.7964 166.172 36.5151C166.641 36.2235 167.172 36.0776 167.766 36.0776C168.443 36.0776 169.052 36.2443 169.594 36.5776C170.146 36.9006 170.583 37.3589 170.906 37.9526C171.24 38.536 171.406 39.2235 171.406 40.0151C171.406 40.8693 171.24 41.6193 170.906 42.2651C170.583 42.9006 170.135 43.3953 169.562 43.7495C169 44.1037 168.359 44.2808 167.641 44.2808C167.193 44.2808 166.734 44.161 166.266 43.9214C165.807 43.6818 165.411 43.3745 165.078 42.9995V47.7964H163.797ZM167.406 43.0308C167.969 43.0308 168.448 42.8849 168.844 42.5933C169.24 42.3016 169.542 41.9266 169.75 41.4683C169.969 40.9995 170.078 40.5151 170.078 40.0151C170.078 39.5047 169.974 39.0516 169.766 38.6558C169.557 38.2495 169.266 37.9266 168.891 37.687C168.516 37.4474 168.073 37.3276 167.562 37.3276C167.094 37.3276 166.667 37.4474 166.281 37.687C165.906 37.9266 165.609 38.2599 165.391 38.687C165.182 39.1037 165.078 39.5933 165.078 40.1558L165.094 41.6558C165.427 42.062 165.776 42.3953 166.141 42.6558C166.505 42.9058 166.927 43.0308 167.406 43.0308ZM177.047 44.2808C176.453 44.2808 175.906 44.1766 175.406 43.9683C174.917 43.7495 174.484 43.4526 174.109 43.0776C173.745 42.6922 173.464 42.2547 173.266 41.7651C173.068 41.2651 172.969 40.7391 172.969 40.187C172.969 39.4474 173.13 38.7651 173.453 38.1401C173.776 37.5151 174.219 37.0151 174.781 36.6401C175.354 36.2651 176.005 36.0776 176.734 36.0776C177.536 36.0776 178.203 36.2443 178.734 36.5776C179.266 36.911 179.661 37.3641 179.922 37.937C180.193 38.5099 180.328 39.1558 180.328 39.8745V40.6401H174.172V39.5464H179.062C179.01 39.036 178.865 38.6193 178.625 38.2964C178.396 37.9735 178.115 37.7339 177.781 37.5776C177.448 37.411 177.099 37.3276 176.734 37.3276C176.234 37.3276 175.802 37.4631 175.438 37.7339C175.073 37.9943 174.792 38.3433 174.594 38.7808C174.396 39.2078 174.297 39.6766 174.297 40.187C174.297 40.687 174.406 41.1558 174.625 41.5933C174.854 42.0203 175.177 42.3693 175.594 42.6401C176.01 42.9006 176.495 43.0308 177.047 43.0308C177.609 43.0308 178.13 42.8901 178.609 42.6089C179.099 42.3172 179.51 41.9995 179.844 41.6558V43.0464C179.698 43.2235 179.479 43.411 179.188 43.6089C178.906 43.7964 178.578 43.9526 178.203 44.0776C177.839 44.2131 177.453 44.2808 177.047 44.2808ZM182.438 44.0464V32.7964H183.719V44.0464H182.438ZM189.906 44.2808C189.312 44.2808 188.766 44.1766 188.266 43.9683C187.776 43.7495 187.344 43.4526 186.969 43.0776C186.604 42.6922 186.323 42.2547 186.125 41.7651C185.927 41.2651 185.828 40.7391 185.828 40.187C185.828 39.4474 185.99 38.7651 186.312 38.1401C186.635 37.5151 187.078 37.0151 187.641 36.6401C188.214 36.2651 188.865 36.0776 189.594 36.0776C190.396 36.0776 191.062 36.2443 191.594 36.5776C192.125 36.911 192.521 37.3641 192.781 37.937C193.052 38.5099 193.188 39.1558 193.188 39.8745V40.6401H187.031V39.5464H191.922C191.87 39.036 191.724 38.6193 191.484 38.2964C191.255 37.9735 190.974 37.7339 190.641 37.5776C190.307 37.411 189.958 37.3276 189.594 37.3276C189.094 37.3276 188.661 37.4631 188.297 37.7339C187.932 37.9943 187.651 38.3433 187.453 38.7808C187.255 39.2078 187.156 39.6766 187.156 40.187C187.156 40.687 187.266 41.1558 187.484 41.5933C187.714 42.0203 188.036 42.3693 188.453 42.6401C188.87 42.9006 189.354 43.0308 189.906 43.0308C190.469 43.0308 190.99 42.8901 191.469 42.6089C191.958 42.3172 192.37 41.9995 192.703 41.6558V43.0464C192.557 43.2235 192.339 43.411 192.047 43.6089C191.766 43.7964 191.438 43.9526 191.062 44.0776C190.698 44.2131 190.312 44.2808 189.906 44.2808ZM196.312 44.3276C196.01 44.3276 195.75 44.2183 195.531 43.9995C195.323 43.7808 195.219 43.5256 195.219 43.2339C195.219 42.9318 195.323 42.6766 195.531 42.4683C195.75 42.2495 196.01 42.1401 196.312 42.1401C196.615 42.1401 196.87 42.2495 197.078 42.4683C197.297 42.6766 197.406 42.9318 197.406 43.2339C197.406 43.5256 197.297 43.7808 197.078 43.9995C196.87 44.2183 196.615 44.3276 196.312 44.3276Z" fill="#6A675E"/>
<path d="M30.9688 63.2183C30.5312 63.2183 30.0677 63.1974 29.5781 63.1558C29.0885 63.1245 28.6198 63.0776 28.1719 63.0151C27.724 62.9526 27.3333 62.8849 27 62.812V52.7183C27.5625 52.5933 28.1667 52.4995 28.8125 52.437C29.4688 52.3641 30.1302 52.3276 30.7969 52.3276C31.5885 52.3276 32.276 52.4578 32.8594 52.7183C33.4427 52.9683 33.8906 53.3172 34.2031 53.7651C34.526 54.2026 34.6875 54.7078 34.6875 55.2808C34.6875 55.8016 34.5417 56.2703 34.25 56.687C33.9688 57.0933 33.6146 57.4058 33.1875 57.6245C33.5 57.6974 33.8021 57.8328 34.0938 58.0308C34.3958 58.2183 34.6458 58.4787 34.8438 58.812C35.0417 59.1453 35.1406 59.562 35.1406 60.062C35.1406 60.6453 34.974 61.1766 34.6406 61.6558C34.3073 62.1349 33.8281 62.5151 33.2031 62.7964C32.5781 63.0776 31.8333 63.2183 30.9688 63.2183ZM30.9375 61.6714C31.6458 61.6714 32.2292 61.5203 32.6875 61.2183C33.1458 60.9162 33.375 60.5151 33.375 60.0151C33.375 59.4943 33.1458 59.1089 32.6875 58.8589C32.2292 58.5985 31.6667 58.4683 31 58.4683H28.4219V57.0776H31C31.6354 57.0776 32.1198 56.9162 32.4531 56.5933C32.7969 56.2703 32.9688 55.8849 32.9688 55.437C32.9688 55.1037 32.8646 54.8224 32.6562 54.5933C32.4583 54.3641 32.1927 54.1922 31.8594 54.0776C31.5365 53.9526 31.1719 53.8901 30.7656 53.8901C30.3698 53.8901 30 53.9058 29.6562 53.937C29.3229 53.9578 29.0052 53.9995 28.7031 54.062V61.4839C28.9323 61.5256 29.1875 61.562 29.4688 61.5933C29.75 61.6245 30.0208 61.6453 30.2812 61.6558C30.5521 61.6662 30.7708 61.6714 30.9375 61.6714ZM40.1562 63.2808C39.5104 63.2808 38.9115 63.1141 38.3594 62.7808C37.8177 62.4474 37.3802 61.9787 37.0469 61.3745C36.724 60.7599 36.5625 60.0412 36.5625 59.2183C36.5625 58.3537 36.724 57.6089 37.0469 56.9839C37.3802 56.3589 37.8281 55.8797 38.3906 55.5464C38.9635 55.2026 39.599 55.0308 40.2969 55.0308C40.7344 55.0308 41.1771 55.1349 41.625 55.3433C42.0833 55.5516 42.4688 55.8328 42.7812 56.187V55.2026H44.3438V63.0464H42.7812V61.7183C42.5312 62.1349 42.1771 62.4995 41.7188 62.812C41.2708 63.1245 40.75 63.2808 40.1562 63.2808ZM40.4844 61.7339C40.9115 61.7339 41.2969 61.6245 41.6406 61.4058C41.9948 61.1766 42.276 60.8641 42.4844 60.4683C42.6927 60.062 42.7917 59.5985 42.7812 59.0776V57.7183C42.4688 57.3641 42.1354 57.0828 41.7812 56.8745C41.4375 56.6662 41.0417 56.562 40.5938 56.562C40.0938 56.562 39.6615 56.687 39.2969 56.937C38.9427 57.187 38.6667 57.5151 38.4688 57.9214C38.2812 58.3276 38.1875 58.7599 38.1875 59.2183C38.1875 59.6766 38.2812 60.0985 38.4688 60.4839C38.6667 60.8693 38.9375 61.1766 39.2812 61.4058C39.625 61.6245 40.026 61.7339 40.4844 61.7339ZM48.3125 53.6558C47.9792 53.6558 47.6979 53.536 47.4688 53.2964C47.2396 53.0568 47.125 52.786 47.125 52.4839C47.125 52.1714 47.2396 51.9006 47.4688 51.6714C47.6979 51.4318 47.9792 51.312 48.3125 51.312C48.5312 51.312 48.7292 51.3693 48.9062 51.4839C49.0833 51.5881 49.224 51.7287 49.3281 51.9058C49.4427 52.0828 49.5 52.2756 49.5 52.4839C49.5 52.6818 49.4427 52.8745 49.3281 53.062C49.224 53.2391 49.0833 53.3849 48.9062 53.4995C48.7292 53.6037 48.5312 53.6558 48.3125 53.6558ZM47.7031 63.0464V55.2026H49.2656V63.0464H47.7031ZM46.4531 56.6089V55.2026H49.2656V56.6089H46.4531ZM50.8281 63.0464L54.0781 58.9995L50.8906 55.2026H52.8281L55.0625 57.9058L57.2812 55.2026H59.2188L56.0469 58.9995L59.2969 63.0464H57.2969L55.0625 60.0151L52.8125 63.0464H50.8281ZM64.25 63.2808C63.6667 63.2808 63.1198 63.1766 62.6094 62.9683C62.1094 62.7599 61.6719 62.4683 61.2969 62.0933C60.9219 61.7183 60.6302 61.286 60.4219 60.7964C60.2135 60.2964 60.1094 59.7599 60.1094 59.187C60.1094 58.437 60.276 57.7495 60.6094 57.1245C60.9427 56.4891 61.401 55.9839 61.9844 55.6089C62.5677 55.2235 63.2292 55.0308 63.9688 55.0308C64.7604 55.0308 65.4271 55.1974 65.9688 55.5308C66.5104 55.8641 66.9167 56.3224 67.1875 56.9058C67.4688 57.4787 67.6094 58.1349 67.6094 58.8745V59.6714H61.5625V58.4683H66.0938C66.0521 58.0099 65.9219 57.6349 65.7031 57.3433C65.4948 57.0516 65.2344 56.8328 64.9219 56.687C64.6198 56.5412 64.2969 56.4683 63.9531 56.4683C63.4948 56.4683 63.0938 56.5933 62.75 56.8433C62.4167 57.0828 62.1562 57.4058 61.9688 57.812C61.7812 58.2183 61.6875 58.6766 61.6875 59.187C61.6875 59.6662 61.7917 60.1037 62 60.4995C62.2188 60.8953 62.526 61.2131 62.9219 61.4526C63.3177 61.6922 63.7708 61.812 64.2812 61.812C64.8542 61.812 65.375 61.6818 65.8438 61.4214C66.3229 61.1506 66.7188 60.8693 67.0312 60.5776V62.1401C66.875 62.3068 66.6562 62.4787 66.375 62.6558C66.0938 62.8328 65.7708 62.9787 65.4062 63.0933C65.0417 63.2183 64.6562 63.2808 64.25 63.2808ZM77.875 63.2808C77.2917 63.2808 76.75 63.1766 76.25 62.9683C75.75 62.7495 75.3073 62.4526 74.9219 62.0776C74.5469 61.6922 74.2552 61.2547 74.0469 60.7651C73.8385 60.2651 73.7344 59.7287 73.7344 59.1558C73.7344 58.5933 73.8385 58.062 74.0469 57.562C74.2552 57.062 74.5469 56.6245 74.9219 56.2495C75.3073 55.8745 75.75 55.5776 76.25 55.3589C76.75 55.1401 77.2917 55.0308 77.875 55.0308C78.4583 55.0308 79 55.1401 79.5 55.3589C80 55.5776 80.4375 55.8745 80.8125 56.2495C81.1979 56.6245 81.4948 57.062 81.7031 57.562C81.9115 58.062 82.0156 58.5933 82.0156 59.1558C82.0156 59.7287 81.9115 60.2651 81.7031 60.7651C81.4948 61.2547 81.1979 61.6922 80.8125 62.0776C80.4375 62.4526 80 62.7495 79.5 62.9683C79 63.1766 78.4583 63.2808 77.875 63.2808ZM77.875 61.7651C78.3646 61.7651 78.7969 61.6506 79.1719 61.4214C79.5469 61.1922 79.8385 60.8797 80.0469 60.4839C80.2656 60.0881 80.375 59.6453 80.375 59.1558C80.375 58.6558 80.2656 58.2131 80.0469 57.8276C79.8385 57.4318 79.5469 57.1193 79.1719 56.8901C78.7969 56.661 78.3646 56.5464 77.875 56.5464C77.3958 56.5464 76.9635 56.661 76.5781 56.8901C76.2031 57.1193 75.9062 57.4318 75.6875 57.8276C75.4792 58.2131 75.375 58.6558 75.375 59.1558C75.375 59.6453 75.4792 60.0881 75.6875 60.4839C75.9062 60.8797 76.2031 61.1922 76.5781 61.4214C76.9635 61.6506 77.3958 61.7651 77.875 61.7651ZM99.25 63.0464L99.2344 58.437C99.2344 57.812 99.0729 57.3433 98.75 57.0308C98.4375 56.7183 98.0104 56.562 97.4688 56.562C97.0312 56.562 96.6562 56.7026 96.3438 56.9839C96.0417 57.2547 95.75 57.5724 95.4688 57.937L95.0938 56.7339C95.4479 56.2756 95.8438 55.8797 96.2812 55.5464C96.7188 55.2026 97.2344 55.0308 97.8281 55.0308C98.3594 55.0308 98.849 55.1506 99.2969 55.3901C99.7552 55.6193 100.12 55.9735 100.391 56.4526C100.672 56.9318 100.812 57.5308 100.812 58.2495V63.0464H99.25ZM88.7188 63.0464V55.2026H90.2812V63.0464H88.7188ZM93.9844 63.0464L93.9688 58.437C93.9688 57.812 93.8073 57.3433 93.4844 57.0308C93.1719 56.7183 92.7396 56.562 92.1875 56.562C91.7604 56.562 91.375 56.7026 91.0312 56.9839C90.6979 57.2547 90.3958 57.5724 90.125 57.937V56.3901C90.2917 56.1818 90.4844 55.9735 90.7031 55.7651C90.9323 55.5568 91.1979 55.3849 91.5 55.2495C91.8125 55.1037 92.1667 55.0308 92.5625 55.0308C93.1979 55.0308 93.776 55.2026 94.2969 55.5464C94.8177 55.8797 95.1771 56.3797 95.375 57.0464L95.5469 57.5776V63.0464H93.9844ZM106.766 63.2808C106.182 63.2808 105.635 63.1766 105.125 62.9683C104.625 62.7599 104.188 62.4683 103.812 62.0933C103.438 61.7183 103.146 61.286 102.938 60.7964C102.729 60.2964 102.625 59.7599 102.625 59.187C102.625 58.437 102.792 57.7495 103.125 57.1245C103.458 56.4891 103.917 55.9839 104.5 55.6089C105.083 55.2235 105.745 55.0308 106.484 55.0308C107.276 55.0308 107.943 55.1974 108.484 55.5308C109.026 55.8641 109.432 56.3224 109.703 56.9058C109.984 57.4787 110.125 58.1349 110.125 58.8745V59.6714H104.078V58.4683H108.609C108.568 58.0099 108.438 57.6349 108.219 57.3433C108.01 57.0516 107.75 56.8328 107.438 56.687C107.135 56.5412 106.812 56.4683 106.469 56.4683C106.01 56.4683 105.609 56.5933 105.266 56.8433C104.932 57.0828 104.672 57.4058 104.484 57.812C104.297 58.2183 104.203 58.6766 104.203 59.187C104.203 59.6662 104.307 60.1037 104.516 60.4995C104.734 60.8953 105.042 61.2131 105.438 61.4526C105.833 61.6922 106.286 61.812 106.797 61.812C107.37 61.812 107.891 61.6818 108.359 61.4214C108.839 61.1506 109.234 60.8693 109.547 60.5776V62.1401C109.391 62.3068 109.172 62.4787 108.891 62.6558C108.609 62.8328 108.286 62.9787 107.922 63.0933C107.557 63.2183 107.172 63.2808 106.766 63.2808ZM115.312 63.2183C114.667 63.2183 114.083 63.0828 113.562 62.812C113.052 62.5412 112.646 62.1558 112.344 61.6558C112.052 61.1558 111.906 60.5568 111.906 59.8589V55.2026H113.516V59.7183C113.516 60.3641 113.693 60.8589 114.047 61.2026C114.401 61.536 114.823 61.7026 115.312 61.7026C115.812 61.7026 116.24 61.536 116.594 61.2026C116.948 60.8589 117.125 60.3641 117.125 59.7183V55.2026H118.734V59.8589C118.734 60.5568 118.583 61.1558 118.281 61.6558C117.979 62.1558 117.573 62.5412 117.062 62.812C116.552 63.0828 115.969 63.2183 115.312 63.2183ZM126.125 63.0464V52.5776H133.406V54.1245H127.828V61.4839H133.406V63.0464H126.125ZM127.172 58.4526V56.9214H132.766V58.4526H127.172ZM135.438 59.8589V58.2651H140.141V59.8589H135.438ZM146.547 63.2808C145.953 63.2808 145.432 63.1245 144.984 62.812C144.536 62.4995 144.182 62.1349 143.922 61.7183V63.0464H142.359V51.7964H143.922V56.187C144.245 55.8328 144.63 55.5516 145.078 55.3433C145.526 55.1349 145.974 55.0308 146.422 55.0308C147.12 55.0308 147.75 55.2026 148.312 55.5464C148.875 55.8797 149.318 56.3589 149.641 56.9839C149.974 57.6089 150.141 58.3537 150.141 59.2183C150.141 60.0412 149.979 60.7599 149.656 61.3745C149.333 61.9787 148.896 62.4474 148.344 62.7808C147.802 63.1141 147.203 63.2808 146.547 63.2808ZM146.219 61.7183C146.688 61.7183 147.094 61.6089 147.438 61.3901C147.781 61.161 148.047 60.8589 148.234 60.4839C148.422 60.0985 148.516 59.6766 148.516 59.2183C148.516 58.7599 148.417 58.3276 148.219 57.9214C148.031 57.5151 147.76 57.187 147.406 56.937C147.052 56.687 146.62 56.562 146.109 56.562C145.672 56.562 145.276 56.6662 144.922 56.8745C144.578 57.0828 144.25 57.3641 143.938 57.7183L143.922 59.0776C143.922 59.5985 144.021 60.0568 144.219 60.4526C144.427 60.8485 144.708 61.161 145.062 61.3901C145.417 61.6089 145.802 61.7183 146.219 61.7183ZM155.75 63.2808C155.167 63.2808 154.625 63.1766 154.125 62.9683C153.625 62.7495 153.182 62.4526 152.797 62.0776C152.422 61.6922 152.13 61.2547 151.922 60.7651C151.714 60.2651 151.609 59.7287 151.609 59.1558C151.609 58.5933 151.714 58.062 151.922 57.562C152.13 57.062 152.422 56.6245 152.797 56.2495C153.182 55.8745 153.625 55.5776 154.125 55.3589C154.625 55.1401 155.167 55.0308 155.75 55.0308C156.333 55.0308 156.875 55.1401 157.375 55.3589C157.875 55.5776 158.312 55.8745 158.688 56.2495C159.073 56.6245 159.37 57.062 159.578 57.562C159.786 58.062 159.891 58.5933 159.891 59.1558C159.891 59.7287 159.786 60.2651 159.578 60.7651C159.37 61.2547 159.073 61.6922 158.688 62.0776C158.312 62.4526 157.875 62.7495 157.375 62.9683C156.875 63.1766 156.333 63.2808 155.75 63.2808ZM155.75 61.7651C156.24 61.7651 156.672 61.6506 157.047 61.4214C157.422 61.1922 157.714 60.8797 157.922 60.4839C158.141 60.0881 158.25 59.6453 158.25 59.1558C158.25 58.6558 158.141 58.2131 157.922 57.8276C157.714 57.4318 157.422 57.1193 157.047 56.8901C156.672 56.661 156.24 56.5464 155.75 56.5464C155.271 56.5464 154.839 56.661 154.453 56.8901C154.078 57.1193 153.781 57.4318 153.562 57.8276C153.354 58.2131 153.25 58.6558 153.25 59.1558C153.25 59.6453 153.354 60.0881 153.562 60.4839C153.781 60.8797 154.078 61.1922 154.453 61.4214C154.839 61.6506 155.271 61.7651 155.75 61.7651ZM165.5 63.2808C164.917 63.2808 164.375 63.1766 163.875 62.9683C163.375 62.7495 162.932 62.4526 162.547 62.0776C162.172 61.6922 161.88 61.2547 161.672 60.7651C161.464 60.2651 161.359 59.7287 161.359 59.1558C161.359 58.5933 161.464 58.062 161.672 57.562C161.88 57.062 162.172 56.6245 162.547 56.2495C162.932 55.8745 163.375 55.5776 163.875 55.3589C164.375 55.1401 164.917 55.0308 165.5 55.0308C166.083 55.0308 166.625 55.1401 167.125 55.3589C167.625 55.5776 168.062 55.8745 168.438 56.2495C168.823 56.6245 169.12 57.062 169.328 57.562C169.536 58.062 169.641 58.5933 169.641 59.1558C169.641 59.7287 169.536 60.2651 169.328 60.7651C169.12 61.2547 168.823 61.6922 168.438 62.0776C168.062 62.4526 167.625 62.7495 167.125 62.9683C166.625 63.1766 166.083 63.2808 165.5 63.2808ZM165.5 61.7651C165.99 61.7651 166.422 61.6506 166.797 61.4214C167.172 61.1922 167.464 60.8797 167.672 60.4839C167.891 60.0881 168 59.6453 168 59.1558C168 58.6558 167.891 58.2131 167.672 57.8276C167.464 57.4318 167.172 57.1193 166.797 56.8901C166.422 56.661 165.99 56.5464 165.5 56.5464C165.021 56.5464 164.589 56.661 164.203 56.8901C163.828 57.1193 163.531 57.4318 163.312 57.8276C163.104 58.2131 163 58.6558 163 59.1558C163 59.6453 163.104 60.0881 163.312 60.4839C163.531 60.8797 163.828 61.1922 164.203 61.4214C164.589 61.6506 165.021 61.7651 165.5 61.7651ZM172.844 60.9995V59.2183L176.844 55.2026H178.844L172.844 60.9995ZM171.656 63.0464V51.7964H173.219V63.0464H171.656ZM177.062 63.0464L173.828 59.0933L174.828 57.9995L179.031 63.0464H177.062ZM180.781 59.5464V52.5776H182.25V59.5464H180.781ZM181.516 63.3276C181.193 63.3276 180.917 63.2131 180.688 62.9839C180.469 62.7547 180.359 62.4839 180.359 62.1714C180.359 61.8485 180.469 61.5776 180.688 61.3589C180.917 61.1297 181.193 61.0151 181.516 61.0151C181.839 61.0151 182.109 61.1297 182.328 61.3589C182.557 61.5776 182.672 61.8485 182.672 62.1714C182.672 62.4839 182.557 62.7547 182.328 62.9839C182.109 63.2131 181.839 63.3276 181.516 63.3276Z" fill="#131E62"/>
<defs>
<filter id="filter0_d_592_148" x="-0.00012207" y="0" width="213.022" height="104" filterUnits="userSpaceOnUse" color-interpolation-filters="sRGB">
<feFlood flood-opacity="0" result="BackgroundImageFix"/>
<feColorMatrix in="SourceAlpha" type="matrix" values="0 0 0 0 0 0 0 0 0 0 0 0 0 0 0 0 0 0 127 0" result="hardAlpha"/>
<feOffset dy="4"/>
<feGaussianBlur stdDeviation="2"/>
<feComposite in2="hardAlpha" operator="out"/>
<feColorMatrix type="matrix" values="0 0 0 0 0 0 0 0 0 0 0 0 0 0 0 0 0 0 0.25 0"/>
<feBlend mode="normal" in2="BackgroundImageFix" result="effect1_dropShadow_592_148"/>
<feBlend mode="normal" in="SourceGraphic" in2="effect1_dropShadow_592_148" result="shape"/>
</filter>
</defs>
</svg>
