<svg width="45" height="49" viewBox="0 0 45 49" fill="none" xmlns="http://www.w3.org/2000/svg">
<path d="M22.0528 26.509V13.1404M2 40.9915V7.57022C2 6.0929 2.66022 4.6761 3.83541 3.63148C5.01061 2.58686 6.60452 2 8.26649 2H39.599C40.2637 2 40.9013 2.23474 41.3714 2.65259C41.8415 3.07044 42.1056 3.63716 42.1056 4.22809V44.3336C42.1056 44.9246 41.8415 45.4913 41.3714 45.9091C40.9013 46.327 40.2637 46.5617 39.599 46.5617H8.26649C6.60452 46.5617 5.01061 45.9749 3.83541 44.9303C2.66022 43.8856 2 42.4688 2 40.9915ZM2 40.9915C2 39.5142 2.66022 38.0974 3.83541 37.0528C5.01061 36.0082 6.60452 35.4213 8.26649 35.4213H42.1056" stroke="white" stroke-width="4" stroke-linecap="round" stroke-linejoin="round"/>
<path d="M14.533 19.8247L22.0528 26.509L29.5725 19.8247" stroke="white" stroke-width="4" stroke-linecap="round" stroke-linejoin="round"/>
</svg>
